HIERARCHY
ROOT Hips
{
     OFFSET 1.88212 96.90440 -13.34250
     CHANNELS 6 Xposition Yposition Zposition Zrotation Xrotation Yrotation
     JOINT Spine
     {
          OFFSET 0.00000 11.89050 0.00000
          CHANNELS 3 Zrotation Xrotation Yrotation
          JOINT Spine1
          {
               OFFSET -0.00000 25.65740 0.12766
               CHANNELS 3 Zrotation Xrotation Yrotation
               JOINT HEad
               {
                    OFFSET 0.00000 8.73416 0.01134
                    CHANNELS 3 Zrotation Xrotation Yrotation
                    End Site
                    {
                         OFFSET -0.29000 12.77420 2.51395
                    }
               }
               JOINT LeftShoulder1
               {
                    OFFSET 8.99000 -0.36225 -0.22000
                    CHANNELS 3 Zrotation Xrotation Yrotation
                    JOINT LeftArm
                    {
                         OFFSET 10.28270 -0.00338 0.32212
                         CHANNELS 3 Zrotation Xrotation Yrotation
                         JOINT LeftForeArm
                         {
                              OFFSET 32.76690 0.09914 -1.42434
                              CHANNELS 3 Zrotation Xrotation Yrotation
                              JOINT LeftHand
                              {
                                   OFFSET 27.56430 0.08536 1.02216
                                   CHANNELS 3 Zrotation Xrotation Yrotation
                                   End Site
                                   {
                                        OFFSET 16.74430 -0.60000 1.50291
                                   }
                              }
                         }
                    }
               }
               JOINT RightShoulder
               {
                    OFFSET -8.99000 -0.36225 -0.22000
                    CHANNELS 3 Zrotation Xrotation Yrotation
                    JOINT RightArm
                    {
                         OFFSET -10.28270 -0.00338 0.32212
                         CHANNELS 3 Zrotation Xrotation Yrotation
                         JOINT RightForeArm
                         {
                              OFFSET -32.89710 0.09914 -1.42434
                              CHANNELS 3 Zrotation Xrotation Yrotation
                              JOINT RightHand
                              {
                                   OFFSET -27.49210 0.08536 1.02216
                                   CHANNELS 3 Zrotation Xrotation Yrotation
                                   End Site
                                   {
                                        OFFSET -16.63120 -0.60000 1.50291
                                   }
                              }
                         }
                    }
               }
          }
     }
     JOINT LeftUpLeg
     {
          OFFSET 8.94580 -8.66707 0.10165
          CHANNELS 3 Zrotation Xrotation Yrotation
          JOINT LeftLeg
          {
               OFFSET 0.00000 -44.42270 1.37270
               CHANNELS 3 Zrotation Xrotation Yrotation
               JOINT LeftFoot
               {
                    OFFSET -0.25355 -42.09240 -1.46059
                    CHANNELS 3 Zrotation Xrotation Yrotation
                    JOINT LeftToes
                    {
                         OFFSET -0.04000 -4.41509 8.49910
                         CHANNELS 3 Zrotation Xrotation Yrotation
                         End Site
                         {
                              OFFSET 0.08000 -0.04745 9.77979
                         }
                    }
               }
          }
     }
     JOINT RightUpLeg
     {
          OFFSET -8.94580 -8.66707 0.10165
          CHANNELS 3 Zrotation Xrotation Yrotation
          JOINT RightLeg
          {
               OFFSET 0.00000 -44.42270 1.37270
               CHANNELS 3 Zrotation Xrotation Yrotation
               JOINT RightFoot
               {
                    OFFSET 0.25355 -42.09240 -1.46059
                    CHANNELS 3 Zrotation Xrotation Yrotation
                    JOINT RightToes
                    {
                         OFFSET 0.04000 -4.41509 8.49910
                         CHANNELS 3 Zrotation Xrotation Yrotation
                         End Site
                         {
                              OFFSET -0.08000 -0.13745 9.77979
                         }
                    }
               }
          }
     }
}
MOTION
Frames: 14
Frame Time: 0.01667
121.57097 84.98598 -167.70526 3.91021 5.96340 108.88512 5.52386 17.92066 12.13286 0.00677 -0.00902 -0.02108 -37.27142 18.16512 30.26771 8.34319 -4.89366 -3.19723 21.31867 -79.05533 41.81868 -42.19302 48.30029 -100.74735 4.87583 11.36442 5.36946 30.52956 -3.32682 4.47244 35.49556 -13.30273 58.70508 19.93000 34.60068 106.92059 -5.21406 5.42387 3.22338 24.54799 -24.37742 10.78575 -4.31008 25.57161 8.71605 79.96923 -0.07264 -0.08416 -103.87933 -4.14702 -10.75201 -26.62341 3.04732 3.51122 -7.96143 33.08194 26.66831 15.30980 -0.08974 0.03542 -17.20800 -50.39911 -28.12463 
120.67963 84.40352 -165.15475 3.05397 5.48438 109.63451 5.33604 17.46046 12.82751 0.00568 -0.00645 -0.02125 -38.54420 16.82179 30.88215 8.07943 -4.36308 -4.22363 24.77485 -79.49027 46.26929 -42.05828 48.66546 -101.39551 4.40270 11.61644 -0.95842 29.76325 -3.20570 3.26663 37.77988 -12.80373 60.65800 19.99806 35.09949 106.50491 -5.64498 3.45252 4.32957 25.55039 -25.63717 11.90779 -3.32739 24.32269 3.48157 84.28468 -0.03895 -0.15407 -107.38395 -3.95211 -7.67174 -26.51031 6.94945 7.12569 -1.76291 27.17538 16.41730 13.22444 -0.13644 0.04047 -9.12292 -42.25683 -26.25504 
119.89728 83.86633 -162.70804 2.43886 5.02977 110.26825 5.29290 17.09251 13.24425 0.00422 -0.00535 -0.02099 -39.53815 15.61288 31.57441 7.75215 -3.69322 -5.07216 28.46684 -80.03496 51.01785 -42.21545 49.15033 -101.67574 5.31728 10.19032 3.07052 29.18809 -2.86049 2.20608 39.71496 -12.27775 62.42161 20.08112 35.56598 106.02860 -5.59663 6.43097 1.75376 26.09501 -26.64068 12.76476 -1.57579 23.31979 -3.63173 87.35818 -0.01712 -0.16314 -96.16475 4.56701 -9.73792 -26.48757 10.27414 10.47702 4.12431 22.07242 6.90657 8.29520 -0.23627 0.10001 -8.38509 -44.37772 -20.21037 
119.28573 83.42353 -160.43321 2.08877 4.60183 110.83618 5.41505 16.83180 13.35303 0.00366 -0.00394 -0.02066 -40.31364 14.59486 32.38945 7.45216 -2.92514 -5.78055 32.50939 -80.64422 56.21798 -42.59151 49.79749 -101.81065 4.93556 10.26821 -0.97960 28.61757 -2.36072 1.23911 41.51772 -11.69573 63.98926 20.19327 35.94975 105.54207 -6.03786 5.50537 2.26370 26.27620 -27.32603 13.32521 0.04315 22.01784 -9.74337 89.91776 -0.03452 -0.12532 -108.51495 0.56147 -1.61092 -26.71374 12.65648 13.57303 9.02410 17.34630 -0.71197 7.57735 -0.14068 0.02182 -7.31490 -41.72375 -16.43347 
118.85229 83.14792 -158.37172 2.00631 4.17820 111.36797 5.74729 16.64817 13.16357 0.00378 -0.00406 -0.01871 -40.91628 13.84109 33.34779 7.23611 -2.24113 -6.23138 35.57014 -81.30457 60.43182 -43.19232 50.46224 -101.58770 5.47685 9.61753 1.14958 28.24720 -1.85817 0.51754 42.99641 -11.03510 65.13728 20.27946 36.25394 105.02851 -6.10626 7.37616 0.73722 26.19390 -27.62452 13.60629 1.61323 20.59069 -14.88646 91.79311 -0.02775 -0.07973 -109.99890 3.01955 1.60545 -26.41296 13.54318 15.65786 12.68272 14.47487 -5.96518 4.84767 -0.16223 0.04995 -6.71054 -42.21100 -12.38301 
118.50845 83.14125 -156.45743 2.15685 3.74982 111.86275 6.24542 16.51589 12.73223 0.00172 -0.00288 -0.01676 -40.15324 14.15306 34.31543 6.87510 -1.47415 -6.45914 37.82105 -82.13464 63.56990 -43.82325 51.12283 -101.25390 5.06436 9.71532 -1.31233 27.87847 -1.20704 -0.03231 44.37454 -10.37459 65.99942 20.30262 36.49282 104.55350 -6.27637 6.88538 0.90151 25.88428 -27.49750 13.62565 3.30627 19.19753 -19.03178 90.11211 0.00226 0.03061 -111.56754 2.07043 6.71674 -25.63088 13.41086 16.66863 15.32255 13.42274 -8.83895 4.73961 -0.12851 0.02569 -8.30198 -42.05092 -10.59741 
118.23224 83.33510 -154.71603 2.48833 3.31266 112.28802 6.84806 16.40544 12.15059 0.00026 -0.00167 -0.01403 -38.36019 15.65453 35.12639 6.39132 -0.70332 -6.46381 38.47500 -83.11245 64.83530 -44.38879 51.68856 -100.76876 5.40716 9.50961 -0.00962 27.55109 -0.47884 -0.32584 45.55151 -9.77978 66.49416 20.24175 36.68594 104.07490 -6.07000 8.11775 -0.16353 25.58862 -27.13996 13.57628 4.10628 19.20165 -20.51029 88.87380 -0.02281 0.00697 -109.73973 1.52805 8.33761 -24.38415 12.60212 16.69059 16.91965 14.06751 -9.60096 2.75664 -0.12430 0.02388 -8.47973 -42.74109 -9.91192 
117.99858 83.69804 -153.16605 2.94193 2.88134 112.61369 7.48688 16.30521 11.49178 -0.00063 -0.00041 -0.01205 -36.73932 17.18206 35.97859 5.82848 0.06055 -6.33190 37.79616 -84.11980 64.55544 -44.75460 52.13662 -100.37325 5.15688 9.90707 -1.46782 27.17582 0.27860 -0.47610 46.56549 -9.20760 66.78748 20.10733 36.81747 103.60760 -5.88280 8.07451 -0.03597 25.45496 -26.75277 13.61904 4.39829 19.97479 -19.85018 87.47303 -0.02827 -0.02431 -108.66860 4.75265 23.98646 -22.70661 11.38545 15.81150 17.36854 16.17044 -8.57245 4.33704 -0.15650 0.02730 -11.29124 -42.57687 -10.69767 
117.80304 84.17649 -151.84314 3.45995 2.48124 112.82906 8.09948 16.20239 10.81020 -0.00115 0.00049 -0.00987 -35.33365 18.75157 36.84190 5.21259 0.77449 -6.04783 35.54565 -85.10931 62.52956 -44.97385 52.45564 -100.00591 5.44436 9.99317 -0.62233 26.66117 1.04104 -0.45168 47.45729 -8.69173 66.90385 19.91060 36.89125 103.14967 -5.53195 8.85165 -0.60170 25.51603 -26.46626 13.82949 4.23763 21.30395 -17.54395 85.71823 -0.02925 -0.05633 -104.38720 4.14459 13.83906 -21.45906 10.55669 15.05682 17.48711 16.81889 -7.33650 4.33099 -0.13378 0.01272 -11.44019 -41.12349 -10.90398 
117.63565 84.72279 -150.75609 3.99432 2.11908 112.93281 8.65817 16.07606 10.14164 -0.00109 0.00083 -0.00808 -34.16807 20.32123 37.70735 4.59132 1.39143 -5.64424 31.64444 -85.96818 58.75632 -45.04409 52.68228 -99.80521 5.30997 10.44699 -1.54377 25.99992 1.72476 -0.37797 48.23147 -8.14747 66.94658 19.71906 36.92041 102.71612 -5.28283 8.90618 -0.36074 25.79317 -26.34679 14.24647 3.55526 23.03090 -13.99550 83.51495 -0.02650 -0.09327 -100.53378 4.43004 13.14613 -20.55909 10.24585 14.40441 17.48413 16.54664 -5.95837 7.56678 -0.15916 -0.01173 -14.38157 -39.33263 -10.58346 
117.50625 85.28920 -149.88074 4.47710 1.78261 112.95750 9.14986 15.87678 9.49961 -0.00101 0.00163 -0.00578 -33.24551 21.86250 38.55368 3.96536 1.95558 -5.10203 -27.09499 -90.00000 0.00000 -45.07929 52.84505 -99.64178 5.50871 10.56532 -0.95962 25.17807 2.41591 -0.11193 48.89309 -7.80712 66.93433 19.58797 36.90102 102.26688 -4.96108 9.42348 -0.65994 26.14297 -26.31542 14.78636 3.37439 23.66052 -11.30474 79.69335 0.01194 -0.13358 -95.95205 4.94946 7.33269 -19.87288 10.23235 13.78407 17.61238 17.17611 -4.79098 5.92451 -0.01369 -0.01375 -12.22688 -38.83451 -9.37134 
117.42096 85.82466 -149.17404 4.88555 1.47987 112.94039 9.54872 15.60369 8.88183 -0.00176 0.00290 -0.00365 -32.54487 23.32290 39.36442 3.30569 2.49409 -4.46851 -26.98356 -90.00000 0.00000 -45.08747 52.96052 -99.52307 5.41863 10.98600 -1.43326 24.22794 3.11204 0.27428 49.44044 -7.64710 66.96652 19.54408 36.82920 101.79368 -4.73087 9.50177 -0.43750 26.40642 -26.23855 15.33903 3.48865 23.59873 -9.36295 74.70192 0.04606 -0.12957 -91.41565 6.06988 4.97124 -19.30678 10.32844 13.14653 17.76109 18.04449 -3.74367 7.08210 -0.02786 0.00109 0.67188 -28.13996 8.07701 
117.39275 86.27151 -148.58401 5.20543 1.21170 112.91277 9.83394 15.24251 8.29002 -0.00273 0.00320 -0.00169 -32.04093 24.69496 40.13081 2.61631 2.92586 -3.75767 -26.72918 -90.00000 0.00000 -45.11163 53.05342 -99.39468 5.55978 10.99525 -1.03939 23.33112 3.73498 0.81757 49.71374 -7.68293 66.96999 19.58982 36.69532 101.27644 -4.49643 9.89202 -0.58854 26.50229 -26.02967 15.82112 3.73010 23.10657 -8.03703 68.82741 0.06591 -0.10354 -86.03773 7.60417 1.94542 -18.80293 10.40085 12.44422 17.88520 18.95918 -2.78238 7.28642 -0.02472 -0.00180 -5.68011 -34.05188 1.34617 
117.41788 86.65506 -148.05838 5.42507 0.97631 112.88684 9.99325 14.80373 7.73240 -0.00304 0.00498 -0.00025 -31.70074 25.92436 40.83821 2.02843 3.34963 -3.03471 -26.46752 -90.00000 0.00000 -45.20589 53.12126 -99.19819 5.53526 11.17394 -1.17073 22.16047 4.34130 1.35957 50.13203 -7.79594 67.12573 19.73726 36.51277 100.69952 -4.39935 9.83438 -0.39572 26.41537 -25.65892 16.20521 4.01390 22.35761 -7.18999 62.23975 0.06884 -0.07188 -78.95953 9.45395 0.40347 -18.34044 10.35264 11.65189 17.97008 19.91414 -1.86119 8.25983 -0.02480 0.00307 3.29018 -19.47041 20.85361 
